<svg width="50" height="50" viewBox="0 0 50 50" fill="none" xmlns="http://www.w3.org/2000/svg">
<g clip-path="url(#clip0)">
<path d="M41.2441 22.4246C41.2441 31.1017 34.2099 38.136 25.5327 38.136C16.8555 38.136 8.82129 31.1017 8.82129 22.4246C8.82129 13.7474 16.8555 5.71313 25.5327 5.71313C34.2099 5.71313 41.2441 13.7474 41.2441 22.4246Z" fill="white"/>
<path d="M9.81311 6.81302L9.81311 6.81303C5.74207 10.8842 3.49902 16.2993 3.49902 22.0566C3.49902 32.1521 10.5127 40.8766 20.2845 43.0824L24.6559 48.911L25.0566 49.4453L25.4574 48.911L29.8289 43.0823C39.6006 40.8765 46.6143 32.1521 46.6143 22.0566C46.6143 16.2993 44.3712 10.8842 40.3002 6.81303C36.2292 2.74206 30.814 0.499022 25.0566 0.499022C19.2993 0.499022 13.8841 2.74206 9.81311 6.81302ZM25.0566 5.99807C29.166 5.99807 33.1604 7.91319 36.1337 10.8865C39.1069 13.8598 41.022 17.8541 41.022 21.9635C41.022 26.0728 39.1069 30.0672 36.1337 33.0405C33.1604 36.0137 29.166 37.9289 25.0566 37.9289C20.9472 37.9289 16.9529 36.0137 13.9796 33.0405C11.0063 30.0672 9.09124 26.0728 9.09124 21.9635C9.09124 17.8541 11.0063 13.8598 13.9796 10.8865C16.9529 7.91319 20.9472 5.99807 25.0566 5.99807Z" fill="#12983A" stroke="white" stroke-width="1.00196"/>
<path d="M24.7074 9.79547C24.7778 9.48361 25.2222 9.48361 25.2926 9.79547L26.8797 16.8216C26.9254 17.0237 27.1573 17.1198 27.3325 17.0091L33.423 13.1632C33.6933 12.9925 34.0075 13.3067 33.8368 13.577L29.9909 19.6675C29.8802 19.8427 29.9763 20.0746 30.1784 20.1203L37.2045 21.7074C37.5164 21.7778 37.5164 22.2222 37.2045 22.2926L30.1784 23.8797C29.9763 23.9254 29.8802 24.1573 29.9909 24.3325L33.8368 30.423C34.0075 30.6933 33.6933 31.0075 33.423 30.8368L27.3325 26.9909C27.1573 26.8802 26.9254 26.9763 26.8797 27.1784L25.2926 34.2045C25.2222 34.5164 24.7778 34.5164 24.7074 34.2045L23.1203 27.1784C23.0746 26.9763 22.8427 26.8802 22.6675 26.9909L16.577 30.8368C16.3067 31.0075 15.9925 30.6933 16.1632 30.423L20.0091 24.3325C20.1198 24.1573 20.0237 23.9254 19.8216 23.8797L12.7955 22.2926C12.4836 22.2222 12.4836 21.7778 12.7955 21.7074L19.8216 20.1203C20.0237 20.0746 20.1198 19.8427 20.0091 19.6675L16.1632 13.577C15.9925 13.3067 16.3067 12.9925 16.577 13.1632L22.6675 17.0091C22.8427 17.1198 23.0746 17.0237 23.1203 16.8216L24.7074 9.79547Z" fill="#12983A"/>
</g>
<defs>
<clipPath id="clip0">
<rect width="50" height="50" fill="white"/>
</clipPath>
</defs>
</svg>
