<svg width="50" height="50" viewBox="0 0 50 50" fill="none" xmlns="http://www.w3.org/2000/svg">
<g clip-path="url(#clip0)">
<circle cx="25.5" cy="22.5" r="16.5" fill="white"/>
<path d="M9.00938 6.12256L9.00938 6.12257C4.73872 10.3933 2.38574 16.0739 2.38574 22.1135C2.38574 32.707 9.74756 41.8615 20.0031 44.1721L24.5994 50.3006L25.0002 50.835L25.401 50.3006L29.9974 44.172C40.2529 41.8614 47.6147 32.707 47.6147 22.1135C47.6147 16.0739 45.2617 10.3933 40.9911 6.12257C36.7205 1.852 31.0398 -0.500978 25.0002 -0.500978C18.9606 -0.500978 13.28 1.852 9.00938 6.12256ZM25.0002 6.27397C33.6798 6.27397 40.7419 13.3362 40.7419 22.0157C40.7419 30.6951 33.6798 37.7573 25.0002 37.7573C16.3206 37.7573 9.25854 30.6951 9.25854 22.0157C9.25854 13.3362 16.3206 6.27397 25.0002 6.27397Z" fill="#12983A" stroke="white" stroke-width="1.00196"/>
<path d="M32.6399 20.5406H16.8992C15.7249 20.5406 14.7695 19.5853 14.7695 18.411V17.4851C14.7695 16.3108 15.7249 15.3555 16.8992 15.3555H32.6399C33.8142 15.3555 34.7695 16.3108 34.7695 17.4851V18.411C34.7695 19.5853 33.8142 20.5406 32.6399 20.5406Z" fill="#12983A"/>
<path d="M24.7691 30.17C25.9964 30.17 26.9913 29.1751 26.9913 27.9478C26.9913 26.7205 25.9964 25.7256 24.7691 25.7256C23.5418 25.7256 22.5469 26.7205 22.5469 27.9478C22.5469 29.1751 23.5418 30.17 24.7691 30.17Z" fill="#12983A"/>
<path d="M32.6859 22.0222H16.8526C16.7248 22.0222 16.6211 22.1259 16.6211 22.2537V24.9063C16.6211 29.4103 20.2422 33.1207 24.7461 33.1333C29.2496 33.1458 32.9174 29.4858 32.9174 24.9852V22.2537C32.9174 22.1259 32.8137 22.0222 32.6859 22.0222ZM24.7692 31.6519C22.727 31.6519 21.0655 29.9904 21.0655 27.9481C21.0655 25.9059 22.727 24.2444 24.7692 24.2444C26.8115 24.2444 28.4729 25.9059 28.4729 27.9481C28.4729 29.9904 26.8115 31.6519 24.7692 31.6519Z" fill="#12983A"/>
</g>
<defs>
<clipPath id="clip0">
<rect width="50" height="50" fill="white"/>
</clipPath>
</defs>
</svg>
