<svg width="250" height="226" viewBox="0 0 250 226" fill="none" xmlns="http://www.w3.org/2000/svg">
<path d="M125 225.115C194.036 225.115 250 221.848 250 217.817C250 213.787 194.036 210.519 125 210.519C55.9644 210.519 0 213.787 0 217.817C0 221.848 55.9644 225.115 125 225.115Z" fill="#E6E6E6"/>
<path d="M167.872 13.4811H19.2573L29.0374 215.883H177.653L167.872 13.4811Z" fill="#7DDDAF"/>
<path opacity="0.2" d="M167.872 13.4811H19.2573L29.0374 215.883H177.653L167.872 13.4811Z" fill="black"/>
<path d="M169.246 13.4811H20.6304L30.4168 215.883H179.032L169.246 13.4811Z" fill="#7DDDAF"/>
<path opacity="0.2" d="M161.4 20.2891H27.4258L36.7868 206.735L153.283 206.58L172.643 189.412L161.4 20.2891Z" fill="black"/>
<path d="M162.425 20.2891C163.854 76.1238 168.363 131.837 175.931 187.175C165.315 194.481 154.753 201.788 144.245 209.095H44.046C34.5889 146.566 29.0381 83.5084 27.4258 20.2891H162.425Z" fill="white"/>
<path d="M175.931 187.175C165.315 194.481 154.753 201.788 144.244 209.095C146.539 199.424 148.931 189.754 151.42 180.083L175.931 187.175Z" fill="#EBEBEB"/>
<path d="M63.7542 37.3477C64.0078 44.1772 64.3044 51.0066 64.6439 57.8361H44.1619C43.8181 51.0023 43.5215 44.1729 43.2723 37.3477H63.7542ZM65.8495 35.1815H41.0352C41.3231 43.4465 41.682 51.7158 42.1118 59.9894H66.9261C66.4963 51.7201 66.1374 43.4508 65.8495 35.1815Z" fill="#7DDDAF"/>
<path d="M147.449 45.0389H77.2928C77.2283 43.4916 77.1682 41.9486 77.1123 40.41H147.262C147.322 41.9529 147.384 43.4959 147.449 45.0389Z" fill="#E0E0E0"/>
<path d="M132.627 54.7738H77.7245C77.6536 53.2265 77.5762 51.6857 77.5117 50.1384H132.407C132.478 51.6857 132.549 53.233 132.627 54.7738Z" fill="#E0E0E0"/>
<path d="M65.7655 77.4735C66.1953 84.3073 66.6745 91.1411 67.2031 97.9748H46.7147C46.1861 91.1411 45.7068 84.3073 45.277 77.4735H65.7655ZM67.7898 75.3138H42.9819C43.4891 83.5874 44.0672 91.861 44.7162 100.135H69.5563C68.9116 91.8567 68.3314 83.5831 67.8156 75.3138H67.7898Z" fill="#7DDDAF"/>
<path d="M105.272 85.1712H79.4843C79.3811 83.6239 79.2715 82.0831 79.1748 80.5358H104.963C105.059 82.0831 105.162 83.6239 105.272 85.1712Z" fill="#E0E0E0"/>
<path d="M129.687 85.1712H110.727L110.417 80.5358H129.378C129.475 82.0831 129.578 83.6239 129.687 85.1712Z" fill="#E0E0E0"/>
<path d="M141.588 94.9061H80.1937C80.0777 93.3652 79.9681 91.818 79.8521 90.2772H141.246C141.362 91.818 141.472 93.3652 141.588 94.9061Z" fill="#E0E0E0"/>
<path d="M68.8411 117.619C69.4557 124.452 70.1176 131.286 70.8267 138.12H50.3383C49.6291 131.286 48.9673 124.452 48.3527 117.619H68.8411ZM70.8138 115.459H45.9995C46.7302 123.728 47.5296 132.004 48.3978 140.286H73.2121C72.3525 132.008 71.5531 123.733 70.8138 115.459Z" fill="#7DDDAF"/>
<path d="M153.431 130.422H83.269L83.7332 135.058H153.895L153.431 130.422Z" fill="#E0E0E0"/>
<path d="M137.249 120.687H82.3472C82.489 122.228 82.6308 123.776 82.7791 125.316H137.675C137.533 123.776 137.385 122.215 137.249 120.687Z" fill="#E0E0E0"/>
<path d="M72.986 157.764C73.7854 164.598 74.63 171.429 75.5196 178.259H55.0312C54.1416 171.425 53.297 164.593 52.4976 157.764H72.986ZM74.9201 155.604H50.0864C51.032 163.861 52.0527 172.132 53.1487 180.418H77.9373C76.8499 172.145 75.8291 163.873 74.875 155.604H74.9201Z" fill="#7DDDAF"/>
<path d="M157.293 165.462H87.1311C86.9441 163.914 86.7572 162.373 86.5767 160.826H156.732C156.919 162.373 157.1 163.914 157.293 165.462Z" fill="#E0E0E0"/>
<path d="M120.288 175.196H88.3494C88.1474 173.649 87.9518 172.106 87.7627 170.568H119.701C119.894 172.106 120.09 173.649 120.288 175.196Z" fill="#E0E0E0"/>
<path d="M139.358 175.196H125.568C125.374 173.649 125.174 172.108 124.981 170.568H138.771C138.964 172.108 139.184 173.649 139.358 175.196Z" fill="#E0E0E0"/>
<path d="M54.7281 54.9092L53.8191 53.4651C51.8334 50.3061 47.7847 47.4823 46.3857 46.6635L47.4301 44.8133C50.1748 46.48 52.6272 48.5861 54.6894 51.0475C57.8097 46.7925 62.4258 42.4085 68.7438 37.6829L70.0783 39.43C63.3348 44.478 58.6156 49.1005 55.6371 53.5489L54.7281 54.9092Z" fill="#7DDDAF"/>
<path d="M57.1782 95.0479L56.2305 93.5974C54.1674 90.4384 50.0414 87.6146 48.623 86.7958L49.6094 84.9456C52.4064 86.6128 54.9164 88.7201 57.0428 91.1862C60.0471 86.9248 64.5406 82.5408 70.7361 77.8088L72.1158 79.5623C65.5076 84.6168 60.911 89.2328 58.0549 93.6876C57.7584 94.1389 57.4683 94.5902 57.1782 95.0479Z" fill="#7DDDAF"/>
<path d="M60.7368 135.29L59.7504 133.82C57.5971 130.661 53.3937 127.837 51.9561 127.012L52.8973 125.162C55.7364 126.836 58.2984 128.942 60.4918 131.402C63.3865 127.147 67.764 122.757 73.8241 118.031L75.2554 119.778C68.8084 124.833 64.2955 129.449 61.5685 133.904L60.7368 135.29Z" fill="#7DDDAF"/>
<path d="M125.729 197.967C121.925 197.967 119.733 196.562 117.799 195.324C115.865 194.086 114.202 193.022 110.991 193.022C107.78 193.022 106.349 194.138 104.834 195.324C103.319 196.51 101.462 197.974 97.6587 197.967C93.855 197.961 91.663 196.562 89.7354 195.324C87.8078 194.086 86.1445 193.022 82.9274 193.022C79.7104 193.022 78.2856 194.138 76.7706 195.324C75.2556 196.51 73.3988 197.974 69.6016 197.967C65.8043 197.961 63.6059 196.562 61.6718 195.324C59.7377 194.086 58.0809 193.022 54.8638 193.022C54.78 192.378 54.6898 191.784 54.606 191.166C58.4097 191.166 60.5952 192.571 62.5293 193.809C64.4634 195.047 66.1202 196.117 69.3308 196.117C72.5414 196.117 73.9726 194.995 75.4876 193.809C77.0027 192.623 78.8658 191.166 82.6695 191.166C86.4732 191.166 88.6523 192.571 90.5864 193.809C92.5205 195.047 94.1838 196.117 97.3944 196.117C100.605 196.117 102.036 194.995 103.551 193.809C105.066 192.623 106.949 191.198 110.733 191.198C114.517 191.198 116.722 192.603 118.656 193.841C120.591 195.079 122.247 196.149 125.464 196.149C125.548 196.736 125.645 197.348 125.729 197.967Z" fill="#EBEBEB"/>
<path d="M131.183 18.4904C129.004 12.6881 123.969 8.88439 118.553 8.88439H107.516C106.694 8.87723 105.893 8.62905 105.211 8.17064C104.529 7.71223 103.997 7.06375 103.68 6.30561C102.899 4.45382 101.594 2.87058 99.925 1.75045C98.2563 0.630314 96.2966 0.0220823 94.2869 0.000491426C92.3429 -0.0196685 90.4431 0.580913 88.8638 1.71488C87.2846 2.84885 86.1084 4.45706 85.5062 6.30561C85.2621 7.063 84.7817 7.72218 84.1354 8.18633C83.489 8.65049 82.7109 8.89515 81.9152 8.88439H70.8845C65.4626 8.88439 60.795 12.7139 59.1833 18.4904L58.5386 20.7984H132.034L131.183 18.4904Z" fill="#263238"/>
<path d="M131.576 23.0677H59.2414C58.6314 23.0606 58.0467 22.8225 57.6052 22.4013C57.1638 21.9802 56.8984 21.4074 56.8625 20.7984C56.8467 20.5057 56.8909 20.213 56.9925 19.9381C57.0941 19.6632 57.2509 19.412 57.4532 19.2C57.6555 18.988 57.8991 18.8197 58.169 18.7054C58.4388 18.5911 58.7292 18.5333 59.0223 18.5355H131.357C131.966 18.5425 132.55 18.7797 132.991 19.1994C133.432 19.6192 133.699 20.1904 133.736 20.7984C133.753 21.0915 133.709 21.385 133.608 21.6606C133.507 21.9363 133.35 22.1882 133.148 22.4009C132.945 22.6136 132.701 22.7825 132.431 22.8972C132.161 23.0119 131.87 23.0699 131.576 23.0677Z" fill="#7DDDAF"/>
<path opacity="0.2" d="M131.576 23.0677H59.2414C58.6314 23.0606 58.0467 22.8225 57.6052 22.4013C57.1638 21.9802 56.8984 21.4074 56.8625 20.7984C56.8467 20.5057 56.8909 20.213 56.9925 19.9381C57.0941 19.6632 57.2509 19.412 57.4532 19.2C57.6555 18.988 57.8991 18.8197 58.169 18.7054C58.4388 18.5911 58.7292 18.5333 59.0223 18.5355H131.357C131.966 18.5425 132.55 18.7797 132.991 19.1994C133.432 19.6192 133.699 20.1904 133.736 20.7984C133.753 21.0915 133.709 21.385 133.608 21.6606C133.507 21.9363 133.35 22.1882 133.148 22.4009C132.945 22.6136 132.701 22.7825 132.431 22.8972C132.161 23.0119 131.87 23.0699 131.576 23.0677Z" fill="black"/>
<path d="M196.51 213.943H191.784L191.313 203.002H196.039L196.51 213.943Z" fill="#FFC3BD"/>
<path d="M224.87 213.943H220.144L217.772 203.002H222.491L224.87 213.943Z" fill="#FFC3BD"/>
<path d="M219.809 213.395H225.114C225.208 213.394 225.299 213.426 225.372 213.485C225.444 213.543 225.495 213.625 225.514 213.717L226.449 217.914C226.471 218.016 226.47 218.123 226.446 218.224C226.421 218.326 226.374 218.422 226.308 218.503C226.242 218.584 226.158 218.649 226.063 218.693C225.968 218.738 225.864 218.76 225.759 218.758C223.909 218.726 223.006 218.617 220.672 218.617C219.235 218.617 216.276 218.765 214.296 218.765C212.317 218.765 212.053 216.831 212.865 216.625C216.508 215.832 217.874 214.736 219.041 213.685C219.253 213.498 219.526 213.395 219.809 213.395Z" fill="#263238"/>
<path d="M191.816 213.395H196.974C197.067 213.394 197.158 213.426 197.231 213.485C197.304 213.543 197.354 213.625 197.374 213.717L198.308 217.914C198.331 218.013 198.332 218.116 198.311 218.215C198.289 218.314 198.246 218.407 198.185 218.488C198.123 218.568 198.044 218.635 197.954 218.681C197.864 218.728 197.765 218.754 197.664 218.758C195.801 218.726 193.112 218.617 190.772 218.617C188.038 218.617 185.679 218.765 182.468 218.765C180.534 218.765 179.993 216.831 180.805 216.625C184.499 215.819 187.516 215.735 190.707 213.762C191.038 213.543 191.421 213.416 191.816 213.395Z" fill="#263238"/>
<path d="M201.074 41.6285C200.429 45.084 200.055 49.3648 202.473 51.6728C202.473 51.6728 201.087 55.18 194.665 55.18C188.799 55.18 191.739 51.6728 191.739 51.6728C195.607 50.7509 195.388 45.9866 194.717 43.2918L201.074 41.6285Z" fill="#FFC3BD"/>
<path d="M189.895 52.137C190.024 51.2731 191.533 50.2803 193.247 49.9064C194.962 49.5324 201.551 48.6943 203.563 49.5325C205.574 50.3706 203.214 52.8268 203.214 52.8268L189.895 52.137Z" fill="#7DDDAF"/>
<path opacity="0.4" d="M189.895 52.137C190.024 51.2731 191.533 50.2803 193.247 49.9064C194.962 49.5324 201.551 48.6943 203.563 49.5325C205.574 50.3706 203.214 52.8268 203.214 52.8268L189.895 52.137Z" fill="white"/>
<path opacity="0.2" d="M191.313 203.009L191.558 208.643H196.284L196.039 203.009H191.313Z" fill="black"/>
<path opacity="0.2" d="M222.498 203.009H217.772L218.997 208.643H223.722L222.498 203.009Z" fill="black"/>
<path d="M212.26 55.9085L206.567 59.7251C206.567 59.7251 214.742 74.2565 214.058 76.5903C213.123 79.7557 211.821 86.6927 210.048 90.2127C210.28 90.967 211.46 92.7077 212.118 93.0042C216.631 89.5745 221.189 78.8209 221.021 75.8102C220.628 68.97 212.26 55.9085 212.26 55.9085Z" fill="#FFC3BD"/>
<path d="M210.048 90.2127L205.535 89.8646L207.901 94.8352C207.901 94.8352 211.84 95.0093 212.498 91.9985L210.048 90.2127Z" fill="#B55B52"/>
<path d="M232.355 114.453L231.974 115.162L229.415 119.998L138.79 72.071L141.717 66.533L232.355 114.453Z" fill="#7DDDAF"/>
<path d="M238.215 103.384L236.345 106.917L235.288 108.915L144.65 60.9951L147.577 55.4507L238.215 103.384Z" fill="#7DDDAF"/>
<path d="M144.681 60.978L141.748 66.5156L232.349 114.506L235.282 108.969L144.681 60.978Z" fill="#7DDDAF"/>
<path opacity="0.2" d="M144.682 60.975L141.749 66.5125L232.35 114.503L235.283 108.966L144.682 60.975Z" fill="black"/>
<path d="M134.883 56.1857L132.246 61.1692L138.79 72.0774L147.577 55.4507L134.883 56.1857Z" fill="#7DDDAF"/>
<path opacity="0.8" d="M134.883 56.1857L132.246 61.1692L138.79 72.0774L147.577 55.4507L134.883 56.1857Z" fill="white"/>
<path d="M129.442 56.5016L132.246 61.1692L134.883 56.1857L129.442 56.5016Z" fill="#7DDDAF"/>
<path d="M201.906 92.1275L204.265 96.5243L207.921 94.8352L205.555 89.8646L201.906 92.1275Z" fill="#B55B52"/>
<path d="M210.906 52.7237C215.373 53.3684 220.492 68.8411 220.492 68.8411L211.105 74.1469C211.105 74.1469 206.973 66.7716 204.942 61.3239C202.802 55.5926 206.115 52.021 210.906 52.7237Z" fill="#263238"/>
<path opacity="0.2" d="M208.308 58.0295C206.277 56.1728 207.521 64.1219 208.488 69.2085C208.985 70.2014 209.455 71.1039 209.855 71.8582C212.118 67.8611 211.106 60.589 208.308 58.0295Z" fill="black"/>
<path d="M184.447 52.9622C184.447 52.9622 178.87 67.2293 184.163 93.7908H209.455C209.629 89.9226 207.192 70.9943 210.931 52.7237C208.138 52.1843 205.312 51.8269 202.473 51.6535C198.898 51.447 195.314 51.447 191.739 51.6535C189.278 51.8992 186.84 52.3368 184.447 52.9622Z" fill="#263238"/>
<path d="M188.335 59.5961L181.965 57.1012C181.965 57.1012 174.629 72.0839 172.295 72.8382C169.155 73.8632 162.708 76.7064 158.802 77.2608C158.312 77.9055 157.551 79.8396 157.673 80.5487C163.057 82.3088 174.513 79.975 176.885 78.1311C182.326 73.8955 188.335 59.5961 188.335 59.5961Z" fill="#FFC3BD"/>
<path opacity="0.2" d="M189.05 57.8941C187.999 55.4701 185.988 54.4579 183.893 54.8125C183.08 57.7845 181.707 64.3153 181.959 74.1533L183.461 74.8754C183.461 74.8754 190.849 62.0395 189.05 57.8941Z" fill="black"/>
<path d="M190.056 56.1986C191.642 60.4214 183.609 72.8704 183.609 72.8704L174.158 67.7129C175.578 63.8428 177.409 60.1362 179.619 56.6563C182.939 51.6986 188.309 51.5568 190.056 56.1986Z" fill="#263238"/>
<path d="M159.033 77.2157L153.412 78.4341L156.261 83.6368C157.833 82.8552 159.26 81.8132 160.484 80.5552L159.033 77.2157Z" fill="#FFC3BD"/>
<path d="M150.755 79.5882L152.999 82.6956L156.261 83.6368L153.411 78.4341L150.755 79.5882Z" fill="#FFC3BD"/>
<path d="M190.361 36.6383C190.383 36.2579 190.199 35.938 189.95 35.9236C189.701 35.9093 189.482 36.206 189.46 36.5863C189.438 36.9667 189.622 37.2866 189.87 37.301C190.119 37.3153 190.339 37.0186 190.361 36.6383Z" fill="#263238"/>
<path d="M190.694 36.6708C190.175 37.8073 189.5 38.8661 188.689 39.8169C188.939 40.0167 189.229 40.16 189.54 40.2368C189.85 40.3136 190.174 40.3221 190.488 40.2617L190.694 36.6708Z" fill="#ED847E"/>
<path d="M189.876 35.3169C189.844 35.3251 189.811 35.3251 189.779 35.3169C189.754 35.3012 189.732 35.2806 189.716 35.2564C189.699 35.2322 189.687 35.2048 189.681 35.1759C189.675 35.147 189.675 35.1172 189.681 35.0882C189.686 35.0593 189.698 35.0318 189.715 35.0074C189.893 34.6937 190.146 34.4281 190.45 34.2338C190.755 34.0395 191.102 33.9222 191.462 33.8921C191.521 33.8921 191.579 33.9159 191.621 33.9582C191.664 34.0005 191.687 34.0579 191.687 34.1178C191.686 34.1771 191.661 34.2336 191.619 34.2755C191.577 34.3175 191.521 34.3418 191.462 34.3434C191.184 34.3726 190.917 34.4672 190.682 34.6196C190.448 34.7721 190.253 34.9779 190.114 35.2202C190.09 35.2594 190.054 35.2899 190.011 35.3072C189.968 35.3246 189.921 35.328 189.876 35.3169Z" fill="#263238"/>
<path d="M203.176 36.3033C202.621 40.958 202.531 43.7108 200.036 45.9737C196.277 49.3777 190.636 46.9021 189.785 42.1765C189.025 37.9215 190.063 31.0232 194.743 29.4308C195.773 29.0745 196.877 28.9873 197.95 29.1774C199.023 29.3675 200.03 29.8287 200.874 30.5172C201.719 31.2057 202.374 32.0986 202.777 33.1113C203.18 34.1239 203.317 35.2227 203.176 36.3033Z" fill="#FFC3BD"/>
<path d="M193.796 37.2188C192.165 37.5411 189.56 33.9179 191.687 30.8427C190.611 30.3076 187.097 32.4158 185.776 30.4495C184.454 28.4831 188.122 27.4194 187.42 25.7561C189.908 26.2654 185.808 29.3728 188.174 29.0698C190.54 28.7668 193.267 24.3893 195.91 26.188C200.584 29.3277 206.954 24.0928 204.356 30.6429C207.541 29.9982 209.72 33.7696 206.683 36.3742C200.629 41.5705 204.356 42.2474 200.52 42.5182C198.599 42.6536 194.131 40.3391 193.796 37.2188Z" fill="#263238"/>
<path d="M196.213 38.405C195.765 39.3426 194.962 40.0638 193.982 40.41C192.693 40.8484 191.952 39.7008 192.255 38.4243C192.525 37.2832 193.544 35.6715 194.878 35.7811C195.168 35.8146 195.445 35.9193 195.684 36.0857C195.923 36.2522 196.118 36.4752 196.25 36.735C196.382 36.9948 196.448 37.2832 196.441 37.5746C196.435 37.866 196.356 38.1513 196.213 38.405Z" fill="#FFC3BD"/>
<path d="M193.125 93.7908C193.125 93.7908 198.489 129.894 201.429 143.432C204.652 158.26 216.792 207.573 216.792 207.573H225.444C225.444 207.573 217.443 159.421 215.599 144.78C213.607 128.869 209.429 93.8166 209.429 93.8166L193.125 93.7908Z" fill="#7DDDAF"/>
<path opacity="0.2" d="M193.125 93.7908C193.125 93.7908 198.489 129.894 201.429 143.432C204.652 158.26 216.792 207.573 216.792 207.573H225.444C225.444 207.573 217.443 159.421 215.599 144.78C213.607 128.869 209.429 93.8166 209.429 93.8166L193.125 93.7908Z" fill="white"/>
<path opacity="0.2" d="M199.495 106.414C199.095 105.847 198.734 105.653 198.399 105.769H198.328C198.252 105.8 198.18 105.841 198.115 105.892C198.048 105.949 197.985 106.012 197.928 106.079L197.825 106.214C197.782 106.279 197.737 106.349 197.689 106.427C197.577 106.614 197.48 106.811 197.399 107.013C197.348 107.136 197.296 107.258 197.251 107.394C197.206 107.529 197.135 107.723 197.083 107.903C197.032 108.084 196.935 108.387 196.864 108.657C196.864 108.722 196.832 108.793 196.813 108.864C196.793 108.935 196.742 109.16 196.71 109.309C196.677 109.457 196.652 109.56 196.626 109.695C196.568 109.947 196.516 110.211 196.465 110.482C196.413 110.753 196.355 111.062 196.303 111.365C196.303 111.475 196.271 111.578 196.252 111.688C196.187 112.074 196.129 112.468 196.071 112.874C197.503 121.861 199.204 132.163 200.584 139.351C200.649 139.119 200.72 138.868 200.784 138.61C201.063 137.408 201.278 136.192 201.429 134.967C202.641 125.71 202.08 110.108 199.495 106.414Z" fill="black"/>
<path d="M184.164 93.7908C184.164 93.7908 183.519 129.107 184.028 143.51C184.564 158.492 189.798 207.554 189.798 207.554H197.799C197.799 207.554 198.089 159.369 198.444 144.657C198.831 128.617 200.765 93.7908 200.765 93.7908H184.164Z" fill="#7DDDAF"/>
<path opacity="0.2" d="M184.164 93.7908C184.164 93.7908 183.519 129.107 184.028 143.51C184.564 158.492 189.798 207.554 189.798 207.554H197.799C197.799 207.554 198.089 159.369 198.444 144.657C198.831 128.617 200.765 93.7908 200.765 93.7908H184.164Z" fill="white"/>
<path d="M198.328 205.104C198.36 205.104 198.328 207.715 198.328 207.715H189.102L188.715 204.782L198.328 205.104Z" fill="#263238"/>
<path d="M225.443 205.297C225.482 205.297 225.875 207.715 225.875 207.715H216.366L215.528 204.943L225.443 205.297Z" fill="#263238"/>
<path d="M218.249 214.22C217.928 214.246 217.607 214.162 217.34 213.981C217.253 213.911 217.186 213.819 217.145 213.715C217.105 213.611 217.092 213.499 217.108 213.388C217.107 213.324 217.124 213.26 217.157 213.204C217.19 213.149 217.238 213.103 217.295 213.072C217.817 212.802 219.345 213.717 219.519 213.846C219.537 213.859 219.55 213.877 219.558 213.897C219.566 213.918 219.568 213.94 219.564 213.962C219.561 213.984 219.551 214.004 219.536 214.02C219.521 214.036 219.502 214.047 219.48 214.052C219.077 214.153 218.664 214.209 218.249 214.22ZM217.546 213.24C217.495 213.239 217.444 213.25 217.398 213.272C217.375 213.285 217.357 213.304 217.344 213.327C217.332 213.349 217.326 213.375 217.327 213.401C217.318 213.476 217.327 213.553 217.354 213.623C217.381 213.694 217.425 213.757 217.482 213.807C218.009 214.048 218.609 214.078 219.158 213.891C218.668 213.572 218.12 213.351 217.546 213.24Z" fill="#7DDDAF"/>
<path d="M219.454 214.052C219.437 214.058 219.419 214.058 219.403 214.052C218.913 213.788 217.971 212.763 218.068 212.228C218.084 212.145 218.128 212.071 218.193 212.017C218.257 211.963 218.338 211.933 218.423 211.931C218.508 211.923 218.594 211.932 218.676 211.957C218.758 211.983 218.834 212.024 218.9 212.079C219.448 212.524 219.544 213.891 219.544 213.949C219.544 213.968 219.54 213.987 219.531 214.004C219.522 214.021 219.509 214.035 219.493 214.046C219.48 214.05 219.467 214.052 219.454 214.052ZM218.5 212.118H218.481C218.332 212.118 218.319 212.202 218.313 212.228C218.255 212.544 218.855 213.324 219.345 213.691C219.31 213.152 219.114 212.636 218.784 212.208C218.741 212.176 218.692 212.153 218.64 212.141C218.587 212.129 218.533 212.128 218.481 212.138L218.5 212.118Z" fill="#7DDDAF"/>
<path d="M189.85 214.22C189.445 214.257 189.04 214.155 188.702 213.93C188.628 213.862 188.571 213.777 188.535 213.683C188.499 213.589 188.486 213.488 188.496 213.388C188.496 213.327 188.513 213.267 188.545 213.215C188.577 213.162 188.622 213.12 188.677 213.092C189.25 212.769 191.152 213.736 191.365 213.839C191.386 213.85 191.403 213.867 191.413 213.888C191.423 213.909 191.427 213.933 191.423 213.956C191.422 213.98 191.412 214.003 191.395 214.02C191.379 214.038 191.357 214.049 191.333 214.052C190.845 214.153 190.348 214.209 189.85 214.22ZM188.992 213.24C188.921 213.239 188.851 213.254 188.786 213.285C188.765 213.296 188.748 213.313 188.735 213.334C188.723 213.354 188.716 213.377 188.715 213.401C188.706 213.468 188.713 213.536 188.737 213.599C188.76 213.662 188.799 213.718 188.851 213.762C189.141 214.02 189.921 214.065 190.965 213.891C190.349 213.566 189.682 213.345 188.992 213.24Z" fill="#7DDDAF"/>
<path d="M191.313 214.052H191.268C190.694 213.794 189.566 212.763 189.656 212.241C189.656 212.112 189.766 211.957 190.069 211.925C190.184 211.911 190.3 211.921 190.411 211.954C190.522 211.987 190.625 212.043 190.713 212.118C191.313 212.615 191.435 213.885 191.442 213.936C191.444 213.956 191.441 213.976 191.433 213.994C191.426 214.012 191.413 214.028 191.397 214.039C191.384 214.047 191.37 214.052 191.356 214.054C191.342 214.057 191.327 214.056 191.313 214.052ZM190.159 212.118H190.114C189.914 212.118 189.901 212.215 189.895 212.241C189.843 212.563 190.61 213.369 191.184 213.717C191.128 213.175 190.903 212.665 190.539 212.26C190.429 212.18 190.295 212.137 190.159 212.138V212.118Z" fill="#7DDDAF"/>
</svg>
