<svg width="93" height="93" viewBox="0 0 93 93" fill="none" xmlns="http://www.w3.org/2000/svg">
<path fill-rule="evenodd" clip-rule="evenodd" d="M-63.5636 3.1C-63.5636 4.02189 -62.8134 4.76923 -61.8879 4.76923C-60.9624 4.76923 -60.2121 4.02189 -60.2121 3.1C-60.2121 2.17811 -60.9624 1.43077 -61.8879 1.43077C-62.8134 1.43077 -63.5636 2.17811 -63.5636 3.1ZM-65 3.1C-65 4.81208 -63.6066 6.2 -61.8879 6.2C-60.4163 6.2 -59.1832 5.18258 -58.859 3.81538H20.1603L36.9458 21.0065L37.1573 21.2231H37.4606H53.4107C53.8146 22.4684 54.9881 23.3692 56.3727 23.3692C58.0915 23.3692 59.4848 21.9813 59.4848 20.2692C59.4848 18.5571 58.0915 17.1692 56.3727 17.1692C54.8168 17.1692 53.5275 18.3067 53.2972 19.7923H37.7639L20.9785 2.60122L20.767 2.38462H20.4636H-58.859C-59.1832 1.01742 -60.4163 0 -61.8879 0C-63.6066 0 -65 1.38792 -65 3.1ZM56.3727 21.9385C55.4472 21.9385 54.697 21.1911 54.697 20.2692C54.697 19.3473 55.4472 18.6 56.3727 18.6C57.2982 18.6 58.0485 19.3473 58.0485 20.2692C58.0485 21.1911 57.2982 21.9385 56.3727 21.9385ZM62.8364 28.8538C62.8364 29.7757 63.5866 30.5231 64.5121 30.5231C65.4376 30.5231 66.1879 29.7757 66.1879 28.8538C66.1879 27.932 65.4376 27.1846 64.5121 27.1846C63.5866 27.1846 62.8364 27.932 62.8364 28.8538ZM64.5121 31.9538C63.1274 31.9538 61.954 31.0531 61.5501 29.8077H50.6854L57.5081 36.6038H70.0387C70.2167 35.0602 71.533 33.8615 73.1303 33.8615C74.8491 33.8615 76.2424 35.2495 76.2424 36.9615C76.2424 38.6736 74.8491 40.0615 73.1303 40.0615C71.7902 40.0615 70.648 39.2178 70.2097 38.0346H58.9445L65.7672 44.8308H78.7196C79.0439 43.4636 80.2769 42.4462 81.7485 42.4462C83.4673 42.4462 84.8606 43.8341 84.8606 45.5462C84.8606 47.2582 83.4673 48.6462 81.7485 48.6462C80.2769 48.6462 79.0439 47.6287 78.7196 46.2615H65.4697H65.1722L64.9619 46.052L56.7028 37.8251L48.654 29.8077H33.9278L57.6278 53.4154H86.859C87.1833 52.0482 88.4163 51.0308 89.8879 51.0308C91.6067 51.0308 93 52.4187 93 54.1308C93 55.8429 91.6067 57.2308 89.8879 57.2308C88.4163 57.2308 87.1833 56.2133 86.859 54.8462H57.3303H57.0328L56.8225 54.6366L31.6861 29.5982L14.4207 12.4H-26.7802C-27.1045 13.7672 -28.3375 14.7846 -29.8091 14.7846C-31.5279 14.7846 -32.9212 13.3967 -32.9212 11.6846C-32.9212 9.97253 -31.5279 8.58462 -29.8091 8.58462C-28.3375 8.58462 -27.1045 9.60203 -26.7802 10.9692H14.7182H15.0157L15.226 11.1788L32.4914 28.3769H48.9515H61.4366C61.6669 26.8913 62.9562 25.7538 64.5121 25.7538C66.2309 25.7538 67.6242 27.1418 67.6242 28.8538C67.6242 30.5659 66.2309 31.9538 64.5121 31.9538ZM73.1303 38.6308C72.2048 38.6308 71.4545 37.8834 71.4545 36.9615C71.4545 36.0396 72.2048 35.2923 73.1303 35.2923C74.0558 35.2923 74.8061 36.0396 74.8061 36.9615C74.8061 37.8834 74.0558 38.6308 73.1303 38.6308ZM80.0727 45.5462C80.0727 46.468 80.823 47.2154 81.7485 47.2154C82.674 47.2154 83.4242 46.468 83.4242 45.5462C83.4242 44.6243 82.674 43.8769 81.7485 43.8769C80.823 43.8769 80.0727 44.6243 80.0727 45.5462ZM88.2121 54.1308C88.2121 55.0527 88.9624 55.8 89.8879 55.8C90.8134 55.8 91.5636 55.0527 91.5636 54.1308C91.5636 53.2089 90.8134 52.4615 89.8879 52.4615C88.9624 52.4615 88.2121 53.2089 88.2121 54.1308ZM-29.8091 13.3538C-30.7346 13.3538 -31.4848 12.6065 -31.4848 11.6846C-31.4848 10.7627 -30.7346 10.0154 -29.8091 10.0154C-28.8836 10.0154 -28.1333 10.7627 -28.1333 11.6846C-28.1333 12.6065 -28.8836 13.3538 -29.8091 13.3538ZM37.4606 89.9C37.4606 90.8219 38.2109 91.5692 39.1364 91.5692C40.0619 91.5692 40.8121 90.8219 40.8121 89.9C40.8121 88.9781 40.0619 88.2308 39.1364 88.2308C38.2109 88.2308 37.4606 88.9781 37.4606 89.9ZM36.0242 89.9C36.0242 91.6121 37.4176 93 39.1364 93C40.8551 93 42.2485 91.6121 42.2485 89.9C42.2485 89.3647 42.1123 88.8611 41.8725 88.4217L50.2085 80.0406H61.6054C62.0535 81.2045 63.186 82.0308 64.5121 82.0308C66.2309 82.0308 67.6242 80.6428 67.6242 78.9308C67.6242 77.2187 66.2309 75.8308 64.5121 75.8308C62.9021 75.8308 61.5777 77.0486 61.4165 78.6098H51.6316L59.0661 71.1351H70.0337C70.1908 72.7006 71.5172 73.9231 73.1303 73.9231C74.8491 73.9231 76.2424 72.5352 76.2424 70.8231C76.2424 69.111 74.8491 67.7231 73.1303 67.7231C71.8075 67.7231 70.6775 68.5451 70.227 69.7043H60.4892L66.9661 63.1923H78.7865C79.1903 64.4377 80.3638 65.3385 81.7485 65.3385C83.4673 65.3385 84.8606 63.9505 84.8606 62.2385C84.8606 60.5264 83.4673 59.1385 81.7485 59.1385C80.1925 59.1385 78.9033 60.2759 78.673 61.7615H66.6667H66.3672L66.1565 61.9734L58.2565 69.9162L49.3989 78.8217L40.9125 87.3541C40.4088 87.0048 39.7966 86.8 39.1364 86.8C37.4176 86.8 36.0242 88.1879 36.0242 89.9ZM81.7485 63.9077C80.823 63.9077 80.0727 63.1604 80.0727 62.2385C80.0727 61.3166 80.823 60.5692 81.7485 60.5692C82.674 60.5692 83.4242 61.3166 83.4242 62.2385C83.4242 63.1604 82.674 63.9077 81.7485 63.9077ZM71.4545 70.8231C71.4545 71.745 72.2048 72.4923 73.1303 72.4923C74.0558 72.4923 74.8061 71.745 74.8061 70.8231C74.8061 69.9012 74.0558 69.1538 73.1303 69.1538C72.2048 69.1538 71.4545 69.9012 71.4545 70.8231ZM64.5121 80.6C63.5866 80.6 62.8364 79.8527 62.8364 78.9308C62.8364 78.0089 63.5866 77.2615 64.5121 77.2615C65.4376 77.2615 66.1879 78.0089 66.1879 78.9308C66.1879 79.8527 65.4376 80.6 64.5121 80.6Z" fill="#12983A"/>
</svg>
