<svg width="308" height="455" viewBox="0 0 308 399" fill="none" xmlns="http://www.w3.org/2000/svg">
<path fill-rule="evenodd" clip-rule="evenodd" d="M668.864 13.3C668.864 17.2552 665.658 20.4615 661.705 20.4615C657.751 20.4615 654.545 17.2552 654.545 13.3C654.545 9.34479 657.751 6.13846 661.705 6.13846C665.658 6.13846 668.864 9.34479 668.864 13.3ZM675 13.3C675 20.6454 669.047 26.6 661.705 26.6C655.418 26.6 650.15 22.2349 648.765 16.3692H311.182L239.472 90.1245L238.569 91.0538H237.273H169.131C167.406 96.3969 162.393 100.262 156.477 100.262C149.134 100.262 143.182 94.3069 143.182 86.9615C143.182 79.6161 149.134 73.6615 156.477 73.6615C163.125 73.6615 168.632 78.5414 169.616 84.9154H235.977L307.687 11.1601L308.59 10.2308H309.886H648.765C650.15 4.36506 655.418 0 661.705 0C669.047 0 675 5.95461 675 13.3ZM156.477 94.1231C160.431 94.1231 163.636 90.9167 163.636 86.9615C163.636 83.0063 160.431 79.8 156.477 79.8C152.523 79.8 149.318 83.0063 149.318 86.9615C149.318 90.9167 152.523 94.1231 156.477 94.1231ZM128.864 123.792C128.864 127.748 125.658 130.954 121.705 130.954C117.751 130.954 114.545 127.748 114.545 123.792C114.545 119.837 117.751 116.631 121.705 116.631C125.658 116.631 128.864 119.837 128.864 123.792ZM121.705 137.092C127.62 137.092 132.633 133.228 134.359 127.885H180.775L151.627 157.042H98.0943C97.3337 150.42 91.7104 145.277 84.8864 145.277C77.5435 145.277 71.5909 151.232 71.5909 158.577C71.5909 165.922 77.5435 171.877 84.8864 171.877C90.6114 171.877 95.4913 168.257 97.3637 163.181H145.49L116.343 192.338H61.0079C59.6228 186.473 54.3551 182.108 48.0682 182.108C40.7253 182.108 34.7727 188.062 34.7727 195.408C34.7727 202.753 40.7253 208.708 48.0682 208.708C54.3551 208.708 59.6228 204.343 61.0079 198.477H117.614H118.885L119.783 197.578L155.067 162.282L189.453 127.885H252.365L151.115 229.169H26.2351C24.85 223.304 19.5823 218.938 13.2955 218.938C5.95258 218.938 0 224.893 0 232.238C0 239.584 5.95258 245.538 13.2955 245.538C19.5823 245.538 24.85 241.173 26.2351 235.308H152.386H153.657L154.556 234.409L261.942 126.986L335.703 53.2H511.719C513.104 59.0657 518.372 63.4308 524.659 63.4308C532.002 63.4308 537.955 57.4762 537.955 50.1308C537.955 42.7854 532.002 36.8308 524.659 36.8308C518.372 36.8308 513.104 41.1958 511.719 47.0615H334.432H333.161L332.262 47.9605L258.502 121.746H188.182H134.844C133.86 115.372 128.352 110.492 121.705 110.492C114.362 110.492 108.409 116.447 108.409 123.792C108.409 131.138 114.362 137.092 121.705 137.092ZM84.8864 165.738C88.8402 165.738 92.0455 162.532 92.0455 158.577C92.0455 154.622 88.8402 151.415 84.8864 151.415C80.9325 151.415 77.7273 154.622 77.7273 158.577C77.7273 162.532 80.9325 165.738 84.8864 165.738ZM55.2273 195.408C55.2273 199.363 52.022 202.569 48.0682 202.569C44.1143 202.569 40.9091 199.363 40.9091 195.408C40.9091 191.452 44.1143 188.246 48.0682 188.246C52.022 188.246 55.2273 191.452 55.2273 195.408ZM20.4545 232.238C20.4545 236.194 17.2493 239.4 13.2955 239.4C9.3416 239.4 6.13636 236.194 6.13636 232.238C6.13636 228.283 9.3416 225.077 13.2955 225.077C17.2493 225.077 20.4545 228.283 20.4545 232.238ZM524.659 57.2923C528.613 57.2923 531.818 54.086 531.818 50.1308C531.818 46.1756 528.613 42.9692 524.659 42.9692C520.705 42.9692 517.5 46.1756 517.5 50.1308C517.5 54.086 520.705 57.2923 524.659 57.2923ZM237.273 385.7C237.273 389.655 234.067 392.862 230.114 392.862C226.16 392.862 222.955 389.655 222.955 385.7C222.955 381.745 226.16 378.538 230.114 378.538C234.067 378.538 237.273 381.745 237.273 385.7ZM243.409 385.7C243.409 393.045 237.457 399 230.114 399C222.771 399 216.818 393.045 216.818 385.7C216.818 383.404 217.4 381.243 218.424 379.358L182.812 343.4H134.123C132.208 348.394 127.37 351.938 121.705 351.938C114.362 351.938 108.409 345.984 108.409 338.638C108.409 331.293 114.362 325.338 121.705 325.338C128.583 325.338 134.241 330.563 134.93 337.262H176.732L144.971 305.192H98.1153C97.4443 311.909 91.7776 317.154 84.8864 317.154C77.5435 317.154 71.5909 311.199 71.5909 303.854C71.5909 296.508 77.5435 290.554 84.8864 290.554C90.5374 290.554 95.365 294.081 97.2896 299.054H138.891L111.221 271.115H60.7224C58.9969 276.458 53.9837 280.323 48.0682 280.323C40.7253 280.323 34.7727 274.368 34.7727 267.023C34.7727 259.678 40.7253 253.723 48.0682 253.723C54.7155 253.723 60.2234 258.603 61.2073 264.977H112.5H113.779L114.68 265.886L148.43 299.963L186.271 338.171L222.526 374.777C224.677 373.279 227.293 372.4 230.114 372.4C237.457 372.4 243.409 378.355 243.409 385.7ZM48.0682 274.185C52.022 274.185 55.2273 270.978 55.2273 267.023C55.2273 263.068 52.022 259.862 48.0682 259.862C44.1143 259.862 40.9091 263.068 40.9091 267.023C40.9091 270.978 44.1143 274.185 48.0682 274.185ZM92.0455 303.854C92.0455 307.809 88.8402 311.015 84.8864 311.015C80.9325 311.015 77.7273 307.809 77.7273 303.854C77.7273 299.899 80.9325 296.692 84.8864 296.692C88.8402 296.692 92.0455 299.899 92.0455 303.854ZM121.705 345.8C125.658 345.8 128.864 342.594 128.864 338.638C128.864 334.683 125.658 331.477 121.705 331.477C117.751 331.477 114.545 334.683 114.545 338.638C114.545 342.594 117.751 345.8 121.705 345.8Z" fill="#E5E5E5"/>
</svg>
