<svg width="20" height="20" viewBox="0 0 20 20" fill="none" xmlns="http://www.w3.org/2000/svg">
<path d="M15.8472 8.24715C13.5631 8.26085 11.7266 10.1156 11.7403 12.3997C11.754 14.6839 13.6133 16.5203 15.8929 16.5066C18.1633 16.4929 19.9998 14.6519 19.9998 12.3769C19.9998 12.3678 19.9998 12.3632 19.9998 12.354C19.9861 10.0699 18.1268 8.23344 15.8472 8.24715ZM19.045 12.4043C19.0313 14.1585 17.6014 15.5701 15.8472 15.5564C14.093 15.5427 12.6814 14.1128 12.6951 12.3586C12.7088 10.6044 14.1387 9.19278 15.8929 9.20649C17.638 9.21563 19.045 10.6364 19.045 12.3815C19.045 12.3906 19.045 12.3952 19.045 12.4043Z" fill="#12983A"/>
<path d="M18.0173 11.9017H16.3453V10.2297C16.3453 9.96478 16.1306 9.75464 15.8702 9.75464C15.6099 9.75464 15.3951 9.96935 15.3951 10.2297V11.9017H13.7231C13.4582 11.9017 13.248 12.1164 13.248 12.3768C13.248 12.6418 13.4628 12.8519 13.7231 12.8519H15.3951V14.5239C15.3951 14.7889 15.6099 14.999 15.8702 14.999C16.1306 14.999 16.3453 14.7843 16.3453 14.5239V12.8519H18.0173C18.2823 12.8519 18.4924 12.6372 18.4924 12.3768C18.497 12.1164 18.2823 11.9017 18.0173 11.9017Z" fill="#12983A"/>
<path d="M15.7012 1.39909H0.525354C0.264961 1.37168 0.0274098 1.56355 0 1.82394C0 1.83308 0 1.84222 0 1.85135V3.90252C0.0137049 4.02586 0.0639561 4.14464 0.141617 4.23601L5.9662 10.1291V18.1236C5.97533 18.2881 6.06213 18.4434 6.20375 18.5302C6.27227 18.5805 6.35907 18.6033 6.4413 18.6033L6.65601 18.5576L9.99543 16.8856C10.1553 16.7988 10.2558 16.6344 10.2558 16.4562V10.1337L16.0804 4.24057C16.1626 4.14464 16.2129 4.03043 16.222 3.90709V1.85135C16.2037 1.58639 15.9708 1.38539 15.7012 1.39909ZM9.4244 9.60832C9.3513 9.70426 9.31019 9.82303 9.30562 9.94181V16.173L6.92097 17.3425V9.94638C6.92097 9.81847 6.86615 9.69969 6.77935 9.61289L1.52581 4.26342H14.7008L9.4244 9.60832ZM15.2718 3.30864H0.954774V2.35387H15.2718V3.30864Z" fill="#12983A"/>
</svg>
