<svg width="25" height="25" viewBox="0 0 25 25" fill="none" xmlns="http://www.w3.org/2000/svg">
<g clip-path="url(#clip0)">
<path d="M19.8095 10.3089C16.9543 10.3261 14.6587 12.6445 14.6759 15.4997C14.693 18.3548 17.0171 20.6504 19.8666 20.6333C22.7047 20.6162 25.0002 18.3149 25.0002 15.4711C25.0002 15.4597 25.0002 15.454 25.0002 15.4426C24.9831 12.5874 22.659 10.2918 19.8095 10.3089ZM23.8068 15.5054C23.7896 17.6982 22.0023 19.4627 19.8095 19.4455C17.6167 19.4284 15.8522 17.641 15.8693 15.4483C15.8865 13.2555 17.6738 11.491 19.8666 11.5081C22.048 11.5195 23.8068 13.2955 23.8068 15.4768C23.8068 15.4882 23.8068 15.4939 23.8068 15.5054Z" fill="white"/>
<path d="M22.5222 14.8772H20.4322V12.7872C20.4322 12.456 20.1638 12.1934 19.8383 12.1934C19.5128 12.1934 19.2444 12.4617 19.2444 12.7872V14.8772H17.1544C16.8232 14.8772 16.5605 15.1456 16.5605 15.4711C16.5605 15.8023 16.8289 16.065 17.1544 16.065H19.2444V18.155C19.2444 18.4862 19.5128 18.7489 19.8383 18.7489C20.1638 18.7489 20.4322 18.4805 20.4322 18.155V16.065H22.5222C22.8534 16.065 23.116 15.7966 23.116 15.4711C23.1217 15.1456 22.8534 14.8772 22.5222 14.8772Z" fill="white"/>
<path d="M19.6265 1.74911H0.656693C0.331202 1.71485 0.0342622 1.95468 0 2.28017C0 2.29159 0 2.30302 0 2.31444V4.87839C0.0171311 5.03257 0.0799452 5.18104 0.177021 5.29525L7.45774 12.6616V22.6548C7.46917 22.8604 7.57766 23.0545 7.75468 23.163C7.84034 23.2258 7.94884 23.2544 8.05162 23.2544L8.32001 23.1973L12.4943 21.1073C12.6942 20.9988 12.8198 20.7932 12.8198 20.5705V12.6673L20.1005 5.30096C20.2033 5.18104 20.2661 5.03828 20.2775 4.8841V2.31444C20.2547 1.98323 19.9635 1.73198 19.6265 1.74911ZM11.7805 12.0107C11.6891 12.1306 11.6377 12.279 11.632 12.4275V20.2165L8.65121 21.6783V12.4332C8.65121 12.2733 8.58269 12.1249 8.47419 12.0164L1.90726 5.32951H18.376L11.7805 12.0107ZM19.0898 4.13605H1.19347V2.94258H19.0898V4.13605Z" fill="white"/>
</g>
<defs>
<clipPath id="clip0">
<rect width="25" height="25" fill="white"/>
</clipPath>
</defs>
</svg>
