<svg width="15" height="15" viewBox="0 0 15 15" fill="none" xmlns="http://www.w3.org/2000/svg">
<g clip-path="url(#clip0)">
<path d="M3.62065 7.08838L10.5586 0.169625C10.7859 -0.0569268 11.1539 -0.0565459 11.3809 0.170797C11.6076 0.398111 11.607 0.766342 11.3797 0.993069L4.85472 7.50003L11.3799 14.007C11.6072 14.2337 11.6078 14.6017 11.3811 14.8291C11.2673 14.943 11.1183 15 10.9693 15C10.8206 15 10.6722 14.9434 10.5586 14.8302L3.62065 7.91165C3.51117 7.80272 3.44973 7.65448 3.44973 7.50003C3.44973 7.34557 3.51135 7.19751 3.62065 7.08838Z" fill="#38393A"/>
</g>
<defs>
<clipPath id="clip0">
<rect width="15" height="15" fill="white" transform="matrix(-1 0 0 1 15 0)"/>
</clipPath>
</defs>
</svg>
