<svg width="19" height="19" viewBox="0 0 19 19" fill="none" xmlns="http://www.w3.org/2000/svg">
<g clip-path="url(#clip0)">
<path d="M16.0701 0.70782V12.4307C16.0701 16.0531 13.1232 19.0001 9.50091 19.0001C5.87862 19.0001 2.93164 16.0531 2.93164 12.4307V0.70782C2.93164 0.31691 3.24855 0 3.63946 0C4.03037 0 4.34728 0.31691 4.34728 0.70782V12.4307C4.34728 15.2725 6.65921 17.5844 9.50091 17.5844C12.3426 17.5844 14.6545 15.2725 14.6545 12.4307V1.41564H8.01057V11.9501C8.01057 12.7718 8.67914 13.4403 9.50091 13.4403C10.3226 13.4403 10.991 12.7717 10.991 11.9501V4.60179C10.991 4.21088 11.3079 3.89397 11.6988 3.89397C12.0897 3.89397 12.4066 4.21088 12.4066 4.60179V11.9501C12.4066 13.5524 11.1032 14.8559 9.50091 14.8559C7.89854 14.8559 6.59493 13.5524 6.59493 11.9501V0.70782C6.59493 0.31691 6.91184 0 7.30275 0H15.3623C15.7532 0 16.0701 0.31691 16.0701 0.70782Z" fill="#12983A"/>
</g>
<defs>
<clipPath id="clip0">
<rect width="19" height="19" fill="white"/>
</clipPath>
</defs>
</svg>
