<svg width="18" height="18" viewBox="0 0 18 18" fill="none" xmlns="http://www.w3.org/2000/svg">
<g clip-path="url(#clip0)">
<path d="M7.92682 0C3.55609 0 0 3.55609 0 7.92682C0 12.2978 3.55609 15.8536 7.92682 15.8536C12.2978 15.8536 15.8536 12.2978 15.8536 7.92682C15.8536 3.55609 12.2978 0 7.92682 0ZM7.92682 14.3903C4.36293 14.3903 1.46341 11.4907 1.46341 7.92685C1.46341 4.36296 4.36293 1.46341 7.92682 1.46341C11.4907 1.46341 14.3902 4.36293 14.3902 7.92682C14.3902 11.4907 11.4907 14.3903 7.92682 14.3903Z" fill="white" stroke="white" stroke-width="0.25"/>
<path d="M17.795 16.808L13.7916 12.8046C13.5188 12.5318 13.077 12.5318 12.8042 12.8046C12.5314 13.0771 12.5314 13.5194 12.8042 13.7919L16.8076 17.7954C16.944 17.9318 17.1226 18 17.3013 18C17.4798 18 17.6586 17.9318 17.795 17.7954C18.0678 17.5228 18.0678 17.0806 17.795 16.808Z" fill="white"/>
</g>
<defs>
<clipPath id="clip0">
<rect width="18" height="18" fill="white"/>
</clipPath>
</defs>
</svg>
