<svg width="18" height="18" viewBox="0 0 18 18" fill="none" xmlns="http://www.w3.org/2000/svg">
<g clip-path="url(#clip0)">
<path d="M7.92682 0C3.55609 0 0 3.55609 0 7.92682C0 12.2978 3.55609 15.8536 7.92682 15.8536C12.2978 15.8536 15.8536 12.2978 15.8536 7.92682C15.8536 3.55609 12.2978 0 7.92682 0ZM7.92682 14.3903C4.36293 14.3903 1.46341 11.4907 1.46341 7.92685C1.46341 4.36296 4.36293 1.46341 7.92682 1.46341C11.4907 1.46341 14.3902 4.36293 14.3902 7.92682C14.3902 11.4907 11.4907 14.3903 7.92682 14.3903Z" fill="#38393A" stroke="white" stroke-width="0.25"/>
<path d="M17.795 16.8081L13.7916 12.8047C13.5188 12.5319 13.077 12.5319 12.8042 12.8047C12.5314 13.0773 12.5314 13.5195 12.8042 13.7921L16.8076 17.7955C16.944 17.9319 17.1226 18.0001 17.3013 18.0001C17.4798 18.0001 17.6586 17.9319 17.795 17.7955C18.0678 17.523 18.0678 17.0807 17.795 16.8081Z" fill="#38393A"/>
</g>
<defs>
<clipPath id="clip0">
<rect width="18" height="18" fill="white"/>
</clipPath>
</defs>
</svg>
