<svg width="22" height="22" viewBox="0 0 22 22" fill="none" xmlns="http://www.w3.org/2000/svg">
<path d="M21.4811 4.86682C14.0168 3.38324 14.4999 3.46072 14.3309 3.48916C14.2768 3.49818 13.6143 3.63134 12.0702 3.94016C11.4228 2.07343 9.64678 0.729492 7.5625 0.729492C5.47628 0.729492 3.69884 2.07596 3.05297 3.94545L0.770172 3.49182C0.372281 3.41293 0 3.71711 0 4.12402V19.249C0 19.5566 0.217293 19.8212 0.518891 19.8812C7.92017 21.3523 7.43561 21.2573 7.48468 21.2633C7.64032 21.2824 7.15932 21.362 14.4379 19.9062L21.2298 21.2562C21.6279 21.3352 22 21.0305 22 20.624V5.49902C22 5.1915 21.7827 4.92681 21.4811 4.86682ZM7.5625 2.01855C9.48161 2.01855 11.043 3.57987 11.043 5.49902C11.043 7.11822 8.45204 11.2284 7.5625 12.5884C6.67395 11.2299 4.08203 7.11856 4.08203 5.49902C4.08203 3.57987 5.64339 2.01855 7.5625 2.01855ZM1.28906 4.90919L2.80199 5.20984C2.79623 5.30554 2.79297 5.40187 2.79297 5.49898C2.79297 6.5738 3.49607 8.30832 4.94248 10.8017C5.78707 12.2576 6.61968 13.5076 6.91797 13.9479V19.8387L1.28906 18.72V4.90919ZM8.20703 13.9479C8.50528 13.5076 9.33793 12.2577 10.1825 10.8017C11.6289 8.30832 12.332 6.5738 12.332 5.49902C12.332 5.40002 12.3286 5.3018 12.3227 5.2043L13.793 4.91018V18.7206L8.20703 19.8378V13.9479ZM20.7109 19.8388L15.082 18.72V4.90924L20.7109 6.02801V19.8388Z" fill="white"/>
</svg>
