<svg width="45" height="45" viewBox="0 0 45 45" fill="none" xmlns="http://www.w3.org/2000/svg">
<path d="M22.5 0C10.0644 0 0 10.0632 0 22.5C0 34.9356 10.0632 45 22.5 45C34.9356 45 45 34.9368 45 22.5C45 10.0644 34.9368 0 22.5 0ZM22.5 42C11.7477 42 2.99997 33.2524 2.99997 22.5C2.99997 11.7476 11.7477 2.99997 22.5 2.99997C33.2523 2.99997 42 11.7477 42 22.5C42 33.2523 33.2523 42 22.5 42Z" fill="#D0CFCF"/>
<path d="M32.6378 21H24.0001V12.3622C24.0001 11.5339 23.3285 10.8622 22.5001 10.8622C21.6716 10.8622 21 11.5338 21 12.3622V21H12.3623C11.534 21 10.8623 21.6715 10.8623 22.5C10.8623 23.3284 11.5339 24 12.3623 24H21V32.6377C21 33.4661 21.6716 34.1378 22.5001 34.1378C23.3285 34.1378 24.0001 33.4662 24.0001 32.6377V24H32.6378C33.4662 24 34.1378 23.3284 34.1378 22.5C34.1378 21.6715 33.4662 21 32.6378 21Z" fill="#D0CFCF"/>
</svg>
