<svg width="70" height="70" viewBox="0 0 70 70" fill="none" xmlns="http://www.w3.org/2000/svg">
<path d="M35 0C15.6554 0 0 15.6539 0 35C0 54.3447 15.6539 70 35 70C54.3446 70 70 54.3461 70 35C70 15.6553 54.3461 0 35 0Z" fill="#D80F0F"/>
<path d="M46.9746 43.1079L38.867 35.0002L46.9746 26.8925C48.0424 25.8247 48.0426 24.0935 46.9748 23.0255C45.9067 21.9576 44.1755 21.9578 43.1078 23.0255L35 31.1332L26.8922 23.0255C25.8245 21.9576 24.093 21.9576 23.0252 23.0255C21.9575 24.0935 21.9575 25.8247 23.0254 26.8925L31.1331 35.0002L23.0254 43.1079C21.9575 44.1758 21.9573 45.9071 23.0252 46.9748C24.0934 48.0429 25.8247 48.0425 26.8922 46.9748L35 38.8671L43.1078 46.9748C44.1753 48.0426 45.9069 48.0427 46.9748 46.9748C48.0427 45.9069 48.0426 44.1757 46.9746 43.1079Z" fill="white"/>
</svg>
