<svg width="70" height="70" viewBox="0 0 70 70" fill="none" xmlns="http://www.w3.org/2000/svg">
<path d="M34.9999 0C15.67 0 0 15.67 0 34.9999C0 54.3298 15.67 69.9999 34.9999 69.9999C54.3298 69.9999 69.9999 54.3298 69.9999 34.9999C69.9793 15.6787 54.3213 0.0206543 34.9999 0ZM54.2674 24.2675L29.2674 49.2675C28.2911 50.2435 26.7086 50.2435 25.7325 49.2675L15.7324 39.2675C14.7392 38.3083 14.7117 36.7257 15.6709 35.7325C16.6301 34.7393 18.2127 34.7118 19.2058 35.671C19.2266 35.6912 19.2472 35.7115 19.2674 35.7325L27.4999 43.9651L50.7325 20.7325C51.7257 19.7733 53.3083 19.8009 54.2674 20.7939C55.2032 21.7627 55.2032 23.2986 54.2674 24.2675Z" fill="#12983A"/>
</svg>
