<svg width="120" height="120" viewBox="0 0 120 120" fill="none" xmlns="http://www.w3.org/2000/svg">
<path d="M90.6302 71.3442C82.2895 71.3442 75.5042 78.1296 75.5042 86.4703C75.5042 94.811 82.2895 101.596 90.6302 101.596C98.9724 101.596 105.756 94.811 105.756 86.4703C105.756 78.1296 98.9709 71.3442 90.6302 71.3442ZM90.6302 94.0334C86.4593 94.0334 83.0672 90.6413 83.0672 86.4703C83.0672 82.2994 86.4593 78.9073 90.6302 78.9073C94.8012 78.9073 98.1933 82.2994 98.1933 86.4703C98.1933 90.6415 94.8012 94.0334 90.6302 94.0334Z" fill="#E5E5E5"/>
<path d="M38.9496 71.3442C30.6089 71.3442 23.8235 78.1296 23.8235 86.4703C23.8235 94.811 30.6089 101.596 38.9496 101.596C47.2903 101.596 54.0757 94.811 54.0757 86.4703C54.0757 78.1296 47.2903 71.3442 38.9496 71.3442ZM38.9496 94.0334C34.7786 94.0334 31.3865 90.6413 31.3865 86.4703C31.3865 82.2994 34.7786 78.9073 38.9496 78.9073C43.1193 78.9073 46.5126 82.2994 46.5126 86.4703C46.5126 90.6415 43.1205 94.0334 38.9496 94.0334Z" fill="#E5E5E5"/>
<path d="M100.816 28.0487C100.174 26.7719 98.8665 25.9663 97.437 25.9663H77.521V33.5294H95.105L105.402 54.01L112.161 50.6116L100.816 28.0487Z" fill="#E5E5E5"/>
<path d="M79.2858 82.8154H50.6724V90.3785H79.2858V82.8154Z" fill="#E5E5E5"/>
<path d="M27.6048 82.8154H14.4958C12.407 82.8154 10.7144 84.5083 10.7144 86.5968C10.7144 88.6856 12.4072 90.3782 14.4958 90.3782H27.6051C29.6938 90.3782 31.3865 88.6854 31.3865 86.5968C31.3865 84.5081 29.6936 82.8154 27.6048 82.8154Z" fill="#E5E5E5"/>
<path d="M119.206 59.6974L111.768 50.1175C111.053 49.1948 109.95 48.6553 108.782 48.6553H81.3025V22.1847C81.3025 20.096 79.6096 18.4033 77.5211 18.4033H14.4958C12.407 18.4033 10.7144 20.0962 10.7144 22.1847C10.7144 24.2732 12.4072 25.9661 14.4958 25.9661H73.7394V52.4367C73.7394 54.5254 75.4323 56.2181 77.5208 56.2181H106.93L112.437 63.3122V82.8147H101.975C99.8858 82.8147 98.1932 84.5076 98.1932 86.5961C98.1932 88.6849 99.8861 90.3775 101.975 90.3775H116.218C118.307 90.3775 120 88.6847 120 86.5961V62.0168C120 61.1772 119.72 60.3604 119.206 59.6974Z" fill="#E5E5E5"/>
<path d="M27.353 63.6558H9.95792C7.86917 63.6558 6.17651 65.3487 6.17651 67.4372C6.17651 69.5259 7.8694 71.2186 9.95792 71.2186H27.3528C29.4415 71.2186 31.1342 69.5257 31.1342 67.4372C31.1344 65.3487 29.4415 63.6558 27.353 63.6558Z" fill="#E5E5E5"/>
<path d="M36.0504 48.7812H3.78141C1.69289 48.7812 0 50.4741 0 52.5629C0 54.6516 1.69289 56.3443 3.78141 56.3443H36.0504C38.1391 56.3443 39.8318 54.6514 39.8318 52.5629C39.8318 50.4744 38.1391 48.7812 36.0504 48.7812Z" fill="#E5E5E5"/>
<path d="M42.2269 33.9077H9.95792C7.86917 33.9077 6.17651 35.6006 6.17651 37.6891C6.17651 39.7779 7.8694 41.4705 9.95792 41.4705H42.2269C44.3157 41.4705 46.0083 39.7776 46.0083 37.6891C46.0085 35.6006 44.3157 33.9077 42.2269 33.9077Z" fill="#E5E5E5"/>
</svg>
