<svg width="100" height="100" viewBox="0 0 100 100" fill="none" xmlns="http://www.w3.org/2000/svg">
<g clip-path="url(#clip0)">
<path d="M99.9983 60.742V24.6803C99.9992 24.5737 99.9901 24.4665 99.9757 24.3592C99.9729 24.3386 99.97 24.318 99.9666 24.2977C99.9503 24.1993 99.9297 24.1013 99.9001 24.0038C99.8994 24.0018 99.8985 23.9997 99.8978 23.9977C99.8761 23.9273 99.8512 23.8576 99.8223 23.7884C99.8139 23.7685 99.8035 23.7504 99.7947 23.7307C99.7836 23.7063 99.7718 23.6823 99.7598 23.6581C99.7214 23.5805 99.6795 23.5056 99.6334 23.4343C99.627 23.4244 99.6216 23.4142 99.615 23.4045C99.5592 23.321 99.4978 23.2429 99.4327 23.1689C99.4205 23.1551 99.4078 23.1422 99.3953 23.1287C99.3349 23.0633 99.2714 23.0018 99.2044 22.9447C99.1938 22.9355 99.1838 22.926 99.173 22.9169C99.0972 22.8547 99.0173 22.7984 98.9347 22.7468C98.9155 22.7348 98.8958 22.7237 98.8761 22.7124C98.7994 22.6676 98.7205 22.6269 98.6392 22.5913C98.6297 22.5873 98.6214 22.5814 98.6116 22.5773L45.2232 0.177093C45.2182 0.175057 45.2132 0.173699 45.2082 0.171663C45.1874 0.163066 45.1657 0.156505 45.1444 0.148586C44.8171 0.0252832 44.4784 -0.0188345 44.1499 0.0103511C44.1435 0.0108036 44.1374 0.0105773 44.1311 0.011256C43.9815 0.0257357 43.8345 0.0549212 43.6917 0.0981339C43.6831 0.100849 43.6745 0.104469 43.6659 0.10741C43.6035 0.127093 43.5415 0.149039 43.4811 0.173926C43.4784 0.175057 43.4754 0.175736 43.4725 0.177093L27.8119 6.74768C26.9716 7.10039 26.4248 7.92257 26.4248 8.83411C26.4248 9.74564 26.9716 10.5678 27.8119 10.9205L42.0854 16.9094V36.8542L1.38538 53.9305C1.35688 53.9425 1.33063 53.9572 1.30303 53.9701C1.27611 53.9827 1.24918 53.995 1.22271 54.0088C1.15846 54.0418 1.0967 54.0778 1.03697 54.1162C1.02746 54.1223 1.01751 54.1266 1.00801 54.133C1.00575 54.1345 1.00394 54.1364 1.00167 54.1377C0.92656 54.1879 0.855293 54.242 0.787872 54.2999C0.780858 54.3058 0.77475 54.3124 0.767963 54.3185C0.71027 54.3694 0.655519 54.4228 0.603709 54.4787C0.588324 54.4952 0.573845 54.5122 0.558913 54.5291C0.516605 54.5775 0.47656 54.6278 0.438777 54.6793C0.424524 54.6986 0.41027 54.7176 0.396696 54.7373C0.355972 54.7968 0.318415 54.8579 0.283573 54.9205C0.277238 54.9321 0.269772 54.9429 0.263664 54.9545C0.224297 55.0284 0.189682 55.1049 0.158686 55.1825C0.150315 55.2036 0.143754 55.225 0.136062 55.2465C0.114795 55.3054 0.0955643 55.3646 0.0790484 55.425C0.0720349 55.4513 0.0654738 55.4773 0.0593652 55.5038C0.0448855 55.5658 0.0331208 55.6284 0.0238448 55.6918C0.0206774 55.7128 0.0168312 55.7339 0.0143425 55.7551C0.0039353 55.8441 -0.0021733 55.9334 -0.00194705 56.0237V75.3386C-0.00194705 76.2499 0.544886 77.0723 1.38516 77.425L54.7598 99.8196C54.9008 99.88 55.049 99.9262 55.2028 99.9569C55.2171 99.9599 55.2315 99.961 55.2458 99.9635C55.3044 99.9741 55.363 99.9841 55.4232 99.99C55.4981 99.9974 55.5734 100.001 55.6487 100.001C55.7241 100.001 55.7992 99.9974 55.8743 99.99C55.9343 99.9841 55.9931 99.9741 56.0517 99.9635C56.0659 99.961 56.0804 99.9599 56.0947 99.9569C56.2485 99.9262 56.3969 99.88 56.5377 99.8196L98.6112 82.1669C99.4515 81.8142 99.9983 80.992 99.9983 80.0805V60.7658C99.9983 60.7579 99.9983 60.7497 99.9983 60.742ZM74.7105 67.9658L60.4229 61.9712C59.2702 61.4861 57.9447 62.0298 57.4614 63.1821C56.9781 64.3343 57.52 65.6601 58.6723 66.1438L68.863 70.4194L55.6492 75.9635L31.134 65.6778L44.3476 60.1336L52.3847 63.5058C53.5372 63.9893 54.863 63.447 55.3462 62.2947C55.8297 61.1425 55.2876 59.8167 54.1354 59.333L46.61 56.1755V41.7615L91.8879 60.7588L74.7105 67.9658ZM42.0852 56.1757L25.2861 63.2241L8.10869 56.0169L42.0852 41.7615V56.1757ZM44.3476 4.71691L91.8881 24.6635L82.0752 28.7809L45.2379 13.3248C45.2311 13.3219 45.2241 13.3192 45.2171 13.3162L34.5347 8.83411L44.3476 4.71691ZM81.1834 33.3137C81.4675 33.4357 81.7711 33.497 82.0752 33.497C82.3725 33.497 82.67 33.4384 82.9505 33.321L95.4734 28.0665V57.3556L46.61 36.854V18.8079L81.1834 33.3137ZM4.52317 59.4196L53.3865 79.9214V94.3357L4.52317 73.8341V59.4196ZM95.4734 78.5759L57.9114 94.3357V79.9214L95.4734 64.1615V78.5759Z" fill="#D0CFCF"/>
</g>
<defs>
<clipPath id="clip0">
<rect width="100" height="100" fill="white"/>
</clipPath>
</defs>
</svg>
